<svg xmlns="http://www.w3.org/2000/svg" xmlns:xlink="http://www.w3.org/1999/xlink" version="1.1" class="marks" width="940" height="200" viewBox="0 0 940 200"><rect width="940" height="200" fill="#E7EFF1"/><g fill="none" stroke-miterlimit="10" transform="translate(63,21)"><g class="mark-group role-frame root" role="graphics-object" aria-roledescription="group mark container"><g transform="translate(0,0)"><path class="background" aria-hidden="true" d="M0,0h800v0h-800Z"/><g><g class="mark-group role-scope concat_0_group" role="graphics-object" aria-roledescription="group mark container"><g transform="translate(0,0)"><path class="background" aria-hidden="true" d="M0.5,0.5h800v40h-800Z" stroke="#ddd"/><g><g class="mark-group role-axis" aria-hidden="true"><g transform="translate(0.5,0.5)"><path class="background" aria-hidden="true" d="M0,0h0v0h0Z" pointer-events="none"/><g><g class="mark-rule role-axis-grid" pointer-events="none"><line transform="translate(54,0)" x2="0" y2="40" stroke="#ddd" stroke-width="1" opacity="1"/><line transform="translate(106,0)" x2="0" y2="40" stroke="#ddd" stroke-width="1" opacity="1"/><line transform="translate(161,0)" x2="0" y2="40" stroke="#ddd" stroke-width="1" opacity="1"/><line transform="translate(215,0)" x2="0" y2="40" stroke="#ddd" stroke-width="1" opacity="1"/><line transform="translate(264,0)" x2="0" y2="40" stroke="#ddd" stroke-width="1" opacity="1"/><line transform="translate(319,0)" x2="0" y2="40" stroke="#ddd" stroke-width="1" opacity="1"/><line transform="translate(371,0)" x2="0" y2="40" stroke="#ddd" stroke-width="1" opacity="1"/><line transform="translate(426,0)" x2="0" y2="40" stroke="#ddd" stroke-width="1" opacity="1"/><line transform="translate(478,0)" x2="0" y2="40" stroke="#ddd" stroke-width="1" opacity="1"/><line transform="translate(533,0)" x2="0" y2="40" stroke="#ddd" stroke-width="1" opacity="1"/><line transform="translate(587,0)" x2="0" y2="40" stroke="#ddd" stroke-width="1" opacity="1"/><line transform="translate(640,0)" x2="0" y2="40" stroke="#ddd" stroke-width="1" opacity="1"/><line transform="translate(694,0)" x2="0" y2="40" stroke="#ddd" stroke-width="1" opacity="1"/><line transform="translate(747,0)" x2="0" y2="40" stroke="#ddd" stroke-width="1" opacity="1"/></g></g><path class="foreground" aria-hidden="true" d="" pointer-events="none" display="none"/></g></g><g class="mark-group role-axis" role="graphics-symbol" aria-roledescription="axis" aria-label="X-axis titled 'Program Schedule &amp; Milestone' for a time scale with values from 10 to 12"><g transform="translate(0.5,0.5)"><path class="background" aria-hidden="true" d="M0,0h0v0h0Z" pointer-events="none"/><g><g class="mark-rule role-axis-domain" pointer-events="none"><line transform="translate(0,0)" x2="800" y2="0" stroke="#888" stroke-width="1" opacity="1"/></g><g class="mark-text role-axis-title" pointer-events="none"><text text-anchor="middle" transform="translate(400,-6)" font-family="sans-serif" font-size="11px" font-weight="bold" fill="#000" opacity="1">Program Schedule &amp; Milestone</text></g></g><path class="foreground" aria-hidden="true" d="" pointer-events="none" display="none"/></g></g><g class="mark-group role-axis" role="graphics-symbol" aria-roledescription="axis" aria-label="Y-axis for a discrete scale with 2 values: 0, 1"><g transform="translate(0.5,0.5)"><path class="background" aria-hidden="true" d="M0,0h0v0h0Z" pointer-events="none"/><g><g class="mark-rule role-axis-domain" pointer-events="none"><line transform="translate(0,0)" x2="0" y2="40" stroke="#888" stroke-width="1" opacity="1"/></g></g><path class="foreground" aria-hidden="true" d="" pointer-events="none" display="none"/></g></g><g class="mark-rect role-mark concat_0_layer_0_marks" role="graphics-object" aria-roledescription="rect mark container"><path aria-label="BGColor: #000000; Start (year-month): 10; End: Dec 31, 2021; Index: 0" role="graphics-symbol" aria-roledescription="bar" d="M4.415204678362573,1L154.06432748538012,1C156.82390260785013,1,159.06432748538012,3.24042487753,159.06432748538012,6L159.06432748538012,14C159.06432748538012,16.75957512247,156.82390260785013,19,154.06432748538012,19L4.415204678362573,19C1.6556295558925733,19,-0.5847953216374269,16.75957512247,-0.5847953216374269,14L-0.5847953216374269,6C-0.5847953216374269,3.24042487753,1.6556295558925733,1,4.415204678362573,1Z" fill="#000000" opacity="0.8"/><path aria-label="BGColor: #000000; Start (year-month): 01; End: Mar 31, 2022; Index: 0" role="graphics-symbol" aria-roledescription="bar" d="M165.8187134502924,1L311.95906432748535,1C314.71863944995533,1,316.95906432748535,3.24042487753,316.95906432748535,6L316.95906432748535,14C316.95906432748535,16.75957512247,314.71863944995533,19,311.95906432748535,19L165.8187134502924,19C163.05913832782238,19,160.8187134502924,16.75957512247,160.8187134502924,14L160.8187134502924,6C160.8187134502924,3.24042487753,163.05913832782238,1,165.8187134502924,1Z" fill="#000000" opacity="0.8"/><path aria-label="BGColor: #000000; Start (year-month): 04; End: Jun 30, 2022; Index: 0" role="graphics-symbol" aria-roledescription="bar" d="M323.7134502923977,1L471.6081871345029,1C474.36776225697287,1,476.6081871345029,3.24042487753,476.6081871345029,6L476.6081871345029,14C476.6081871345029,16.75957512247,474.36776225697287,19,471.6081871345029,19L323.7134502923977,19C320.9538751699277,19,318.7134502923977,16.75957512247,318.7134502923977,14L318.7134502923977,6C318.7134502923977,3.24042487753,320.9538751699277,1,323.7134502923977,1Z" fill="#000000" opacity="0.8"/><path aria-label="BGColor: #000000; Start (year-month): 07; End: Sep 30, 2022; Index: 0" role="graphics-symbol" aria-roledescription="bar" d="M483.3625730994152,1L633.0116959064328,1C635.7712710289028,1,638.0116959064328,3.24042487753,638.0116959064328,6L638.0116959064328,14C638.0116959064328,16.75957512247,635.7712710289028,19,633.0116959064328,19L483.3625730994152,19C480.60299797694523,19,478.3625730994152,16.75957512247,478.3625730994152,14L478.3625730994152,6C478.3625730994152,3.24042487753,480.60299797694523,1,483.3625730994152,1Z" fill="#000000" opacity="0.8"/><path aria-label="BGColor: #000000; Start (year-month): 10; End: Dec 31, 2022; Index: 0" role="graphics-symbol" aria-roledescription="bar" d="M644.766081871345,1L794.4152046783626,1C797.1747798008325,1,799.4152046783626,3.24042487753,799.4152046783626,6L799.4152046783626,14C799.4152046783626,16.75957512247,797.1747798008325,19,794.4152046783626,19L644.766081871345,19C642.006506748875,19,639.766081871345,16.75957512247,639.766081871345,14L639.766081871345,6C639.766081871345,3.24042487753,642.006506748875,1,644.766081871345,1Z" fill="#000000" opacity="0.8"/><path aria-label="BGColor: #A3B0BB; Start (year-month): 10; End: Oct 31, 2021; Index: 1" role="graphics-symbol" aria-roledescription="bar" d="M4.415204678362573,21L47.046783625730995,21C49.80635874820099,21,52.046783625730995,23.24042487753,52.046783625730995,26L52.046783625730995,34C52.046783625730995,36.75957512247,49.80635874820099,39,47.046783625730995,39L4.415204678362573,39C1.6556295558925733,39,-0.5847953216374269,36.75957512247,-0.5847953216374269,34L-0.5847953216374269,26C-0.5847953216374269,23.24042487753,1.6556295558925733,21,4.415204678362573,21Z" fill="#A3B0BB" opacity="0.8"/><path aria-label="BGColor: #60696B; Start (year-month): 11; End: Nov 30, 2021; Index: 1" role="graphics-symbol" aria-roledescription="bar" d="M58.80116959064327,21L99.67836257309942,21C102.43793769556942,21,104.67836257309942,23.24042487753,104.67836257309942,26L104.67836257309942,34C104.67836257309942,36.75957512247,102.43793769556942,39,99.67836257309942,39L58.80116959064327,39C56.04159446817327,39,53.80116959064327,36.75957512247,53.80116959064327,34L53.80116959064327,26C53.80116959064327,23.24042487753,56.04159446817327,21,58.80116959064327,21Z" fill="#60696B" opacity="0.8"/><path aria-label="BGColor: #A3B0BB; Start (year-month): 12; End: Dec 31, 2021; Index: 1" role="graphics-symbol" aria-roledescription="bar" d="M111.43274853801171,21L154.06432748538012,21C156.82390260785013,21,159.06432748538012,23.24042487753,159.06432748538012,26L159.06432748538012,34C159.06432748538012,36.75957512247,156.82390260785013,39,154.06432748538012,39L111.43274853801171,39C108.67317341554171,39,106.43274853801171,36.75957512247,106.43274853801171,34L106.43274853801171,26C106.43274853801171,23.24042487753,108.67317341554171,21,111.43274853801171,21Z" fill="#A3B0BB" opacity="0.8"/><path aria-label="BGColor: #60696B; Start (year-month): 01; End: Jan 31, 2022; Index: 1" role="graphics-symbol" aria-roledescription="bar" d="M165.8187134502924,21L208.4502923976608,21C211.2098675201308,21,213.4502923976608,23.24042487753,213.4502923976608,26L213.4502923976608,34C213.4502923976608,36.75957512247,211.2098675201308,39,208.4502923976608,39L165.8187134502924,39C163.05913832782238,39,160.8187134502924,36.75957512247,160.8187134502924,34L160.8187134502924,26C160.8187134502924,23.24042487753,163.05913832782238,21,165.8187134502924,21Z" fill="#60696B" opacity="0.8"/><path aria-label="BGColor: #A3B0BB; Start (year-month): 02; End: Feb 28, 2022; Index: 1" role="graphics-symbol" aria-roledescription="bar" d="M220.20467836257308,21L257.5730994152047,21C260.3326745376747,21,262.5730994152047,23.24042487753,262.5730994152047,26L262.5730994152047,34C262.5730994152047,36.75957512247,260.3326745376747,39,257.5730994152047,39L220.20467836257308,39C217.44510324010307,39,215.20467836257308,36.75957512247,215.20467836257308,34L215.20467836257308,26C215.20467836257308,23.24042487753,217.44510324010307,21,220.20467836257308,21Z" fill="#A3B0BB" opacity="0.8"/><path aria-label="BGColor: #60696B; Start (year-month): 03; End: Mar 31, 2022; Index: 1" role="graphics-symbol" aria-roledescription="bar" d="M269.32748538011697,21L311.95906432748535,21C314.71863944995533,21,316.95906432748535,23.24042487753,316.95906432748535,26L316.95906432748535,34C316.95906432748535,36.75957512247,314.71863944995533,39,311.95906432748535,39L269.32748538011697,39C266.567910257647,39,264.32748538011697,36.75957512247,264.32748538011697,34L264.32748538011697,26C264.32748538011697,23.24042487753,266.567910257647,21,269.32748538011697,21Z" fill="#60696B" opacity="0.8"/><path aria-label="BGColor: #A3B0BB; Start (year-month): 04; End: Apr 30, 2022; Index: 1" role="graphics-symbol" aria-roledescription="bar" d="M323.7134502923977,21L364.5906432748538,21C367.3502183973238,21,369.5906432748538,23.24042487753,369.5906432748538,26L369.5906432748538,34C369.5906432748538,36.75957512247,367.3502183973238,39,364.5906432748538,39L323.7134502923977,39C320.9538751699277,39,318.7134502923977,36.75957512247,318.7134502923977,34L318.7134502923977,26C318.7134502923977,23.24042487753,320.9538751699277,21,323.7134502923977,21Z" fill="#A3B0BB" opacity="0.8"/><path aria-label="BGColor: #60696B; Start (year-month): 05; End: May 31, 2022; Index: 1" role="graphics-symbol" aria-roledescription="bar" d="M376.34502923976606,21L418.9766081871345,21C421.7361833096045,21,423.9766081871345,23.24042487753,423.9766081871345,26L423.9766081871345,34C423.9766081871345,36.75957512247,421.7361833096045,39,418.9766081871345,39L376.34502923976606,39C373.5854541172961,39,371.34502923976606,36.75957512247,371.34502923976606,34L371.34502923976606,26C371.34502923976606,23.24042487753,373.5854541172961,21,376.34502923976606,21Z" fill="#60696B" opacity="0.8"/><path aria-label="BGColor: #A3B0BB; Start (year-month): 06; End: Jun 30, 2022; Index: 1" role="graphics-symbol" aria-roledescription="bar" d="M430.73099415204683,21L471.6081871345029,21C474.36776225697287,21,476.6081871345029,23.24042487753,476.6081871345029,26L476.6081871345029,34C476.6081871345029,36.75957512247,474.36776225697287,39,471.6081871345029,39L430.73099415204683,39C427.97141902957685,39,425.73099415204683,36.75957512247,425.73099415204683,34L425.73099415204683,26C425.73099415204683,23.24042487753,427.97141902957685,21,430.73099415204683,21Z" fill="#A3B0BB" opacity="0.8"/><path aria-label="BGColor: #60696B; Start (year-month): 07; End: Jul 31, 2022; Index: 1" role="graphics-symbol" aria-roledescription="bar" d="M483.3625730994152,21L525.9941520467836,21C528.7537271692536,21,530.9941520467836,23.24042487753,530.9941520467836,26L530.9941520467836,34C530.9941520467836,36.75957512247,528.7537271692536,39,525.9941520467836,39L483.3625730994152,39C480.60299797694523,39,478.3625730994152,36.75957512247,478.3625730994152,34L478.3625730994152,26C478.3625730994152,23.24042487753,480.60299797694523,21,483.3625730994152,21Z" fill="#60696B" opacity="0.8"/><path aria-label="BGColor: #A3B0BB; Start (year-month): 08; End: Aug 31, 2022; Index: 1" role="graphics-symbol" aria-roledescription="bar" d="M537.7485380116959,21L580.3801169590644,21C583.1396920815343,21,585.3801169590644,23.24042487753,585.3801169590644,26L585.3801169590644,34C585.3801169590644,36.75957512247,583.1396920815343,39,580.3801169590644,39L537.7485380116959,39C534.988962889226,39,532.7485380116959,36.75957512247,532.7485380116959,34L532.7485380116959,26C532.7485380116959,23.24042487753,534.988962889226,21,537.7485380116959,21Z" fill="#A3B0BB" opacity="0.8"/><path aria-label="BGColor: #60696B; Start (year-month): 09; End: Sep 30, 2022; Index: 1" role="graphics-symbol" aria-roledescription="bar" d="M592.1345029239766,21L633.0116959064328,21C635.7712710289028,21,638.0116959064328,23.24042487753,638.0116959064328,26L638.0116959064328,34C638.0116959064328,36.75957512247,635.7712710289028,39,633.0116959064328,39L592.1345029239766,39C589.3749278015066,39,587.1345029239766,36.75957512247,587.1345029239766,34L587.1345029239766,26C587.1345029239766,23.24042487753,589.3749278015066,21,592.1345029239766,21Z" fill="#60696B" opacity="0.8"/><path aria-label="BGColor: #A3B0BB; Start (year-month): 10; End: Oct 31, 2022; Index: 1" role="graphics-symbol" aria-roledescription="bar" d="M644.766081871345,21L687.3976608187135,21C690.1572359411834,21,692.3976608187135,23.24042487753,692.3976608187135,26L692.3976608187135,34C692.3976608187135,36.75957512247,690.1572359411834,39,687.3976608187135,39L644.766081871345,39C642.006506748875,39,639.766081871345,36.75957512247,639.766081871345,34L639.766081871345,26C639.766081871345,23.24042487753,642.006506748875,21,644.766081871345,21Z" fill="#A3B0BB" opacity="0.8"/><path aria-label="BGColor: #60696B; Start (year-month): 11; End: Nov 30, 2022; Index: 1" role="graphics-symbol" aria-roledescription="bar" d="M699.1520467836258,21L740.0292397660819,21C742.7888148885519,21,745.0292397660819,23.24042487753,745.0292397660819,26L745.0292397660819,34C745.0292397660819,36.75957512247,742.7888148885519,39,740.0292397660819,39L699.1520467836258,39C696.3924716611558,39,694.1520467836258,36.75957512247,694.1520467836258,34L694.1520467836258,26C694.1520467836258,23.24042487753,696.3924716611558,21,699.1520467836258,21Z" fill="#60696B" opacity="0.8"/><path aria-label="BGColor: #A3B0BB; Start (year-month): 12; End: Dec 31, 2022; Index: 1" role="graphics-symbol" aria-roledescription="bar" d="M751.7836257309941,21L794.4152046783626,21C797.1747798008325,21,799.4152046783626,23.24042487753,799.4152046783626,26L799.4152046783626,34C799.4152046783626,36.75957512247,797.1747798008325,39,794.4152046783626,39L751.7836257309941,39C749.0240506085241,39,746.7836257309941,36.75957512247,746.7836257309941,34L746.7836257309941,26C746.7836257309941,23.24042487753,749.0240506085241,21,751.7836257309941,21Z" fill="#A3B0BB" opacity="0.8"/></g><g class="mark-text role-mark concat_0_layer_1_marks" role="graphics-object" aria-roledescription="text mark container"><text aria-label="site: undefined; Description: 2021Q4; Start: Oct 01, 2021; Index: 0" role="graphics-symbol" aria-roledescription="text mark" text-anchor="middle" transform="translate(79.41520467836257,13)" font-family="sans-serif" font-size="11px" fill="#FFFFFF">2021Q4</text><text aria-label="site: undefined; Description: 2022Q1; Start: Jan 01, 2022; Index: 0" role="graphics-symbol" aria-roledescription="text mark" text-anchor="middle" transform="translate(240.8187134502924,13)" font-family="sans-serif" font-size="11px" fill="#FFFFFF">2022Q1</text><text aria-label="site: undefined; Description: 2022Q2; Start: Apr 01, 2022; Index: 0" role="graphics-symbol" aria-roledescription="text mark" text-anchor="middle" transform="translate(398.7134502923977,13)" font-family="sans-serif" font-size="11px" fill="#FFFFFF">2022Q2</text><text aria-label="site: undefined; Description: 2022Q3; Start: Jul 01, 2022; Index: 0" role="graphics-symbol" aria-roledescription="text mark" text-anchor="middle" transform="translate(558.3625730994152,13)" font-family="sans-serif" font-size="11px" fill="#FFFFFF">2022Q3</text><text aria-label="site: undefined; Description: 2022Q4; Start: Oct 01, 2022; Index: 0" role="graphics-symbol" aria-roledescription="text mark" text-anchor="middle" transform="translate(719.766081871345,13)" font-family="sans-serif" font-size="11px" fill="#FFFFFF">2022Q4</text></g><g class="mark-text role-mark concat_0_layer_2_marks" role="graphics-object" aria-roledescription="text mark container"><text aria-label="site: undefined; Description: 10; Start: Oct 01, 2021; Index: 1" role="graphics-symbol" aria-roledescription="text mark" text-anchor="middle" transform="translate(24.415204678362574,33)" font-family="sans-serif" font-size="11px" fill="#000000">10</text><text aria-label="site: undefined; Description: 11; Start: Nov 01, 2021; Index: 1" role="graphics-symbol" aria-roledescription="text mark" text-anchor="middle" transform="translate(78.80116959064327,33)" font-family="sans-serif" font-size="11px" fill="#000000">11</text><text aria-label="site: undefined; Description: 12; Start: Dec 01, 2021; Index: 1" role="graphics-symbol" aria-roledescription="text mark" text-anchor="middle" transform="translate(131.4327485380117,33)" font-family="sans-serif" font-size="11px" fill="#000000">12</text><text aria-label="site: undefined; Description: 01; Start: Jan 01, 2022; Index: 1" role="graphics-symbol" aria-roledescription="text mark" text-anchor="middle" transform="translate(185.8187134502924,33)" font-family="sans-serif" font-size="11px" fill="#000000">01</text><text aria-label="site: undefined; Description: 02; Start: Feb 01, 2022; Index: 1" role="graphics-symbol" aria-roledescription="text mark" text-anchor="middle" transform="translate(240.20467836257308,33)" font-family="sans-serif" font-size="11px" fill="#000000">02</text><text aria-label="site: undefined; Description: 03; Start: Mar 01, 2022; Index: 1" role="graphics-symbol" aria-roledescription="text mark" text-anchor="middle" transform="translate(289.32748538011697,33)" font-family="sans-serif" font-size="11px" fill="#000000">03</text><text aria-label="site: undefined; Description: 04; Start: Apr 01, 2022; Index: 1" role="graphics-symbol" aria-roledescription="text mark" text-anchor="middle" transform="translate(343.7134502923977,33)" font-family="sans-serif" font-size="11px" fill="#000000">04</text><text aria-label="site: undefined; Description: 05; Start: May 01, 2022; Index: 1" role="graphics-symbol" aria-roledescription="text mark" text-anchor="middle" transform="translate(396.34502923976606,33)" font-family="sans-serif" font-size="11px" fill="#000000">05</text><text aria-label="site: undefined; Description: 06; Start: Jun 01, 2022; Index: 1" role="graphics-symbol" aria-roledescription="text mark" text-anchor="middle" transform="translate(450.73099415204683,33)" font-family="sans-serif" font-size="11px" fill="#000000">06</text><text aria-label="site: undefined; Description: 07; Start: Jul 01, 2022; Index: 1" role="graphics-symbol" aria-roledescription="text mark" text-anchor="middle" transform="translate(503.3625730994152,33)" font-family="sans-serif" font-size="11px" fill="#000000">07</text><text aria-label="site: undefined; Description: 08; Start: Aug 01, 2022; Index: 1" role="graphics-symbol" aria-roledescription="text mark" text-anchor="middle" transform="translate(557.7485380116959,33)" font-family="sans-serif" font-size="11px" fill="#000000">08</text><text aria-label="site: undefined; Description: 09; Start: Sep 01, 2022; Index: 1" role="graphics-symbol" aria-roledescription="text mark" text-anchor="middle" transform="translate(612.1345029239766,33)" font-family="sans-serif" font-size="11px" fill="#000000">09</text><text aria-label="site: undefined; Description: 10; Start: Oct 01, 2022; Index: 1" role="graphics-symbol" aria-roledescription="text mark" text-anchor="middle" transform="translate(664.766081871345,33)" font-family="sans-serif" font-size="11px" fill="#000000">10</text><text aria-label="site: undefined; Description: 11; Start: Nov 01, 2022; Index: 1" role="graphics-symbol" aria-roledescription="text mark" text-anchor="middle" transform="translate(719.1520467836258,33)" font-family="sans-serif" font-size="11px" fill="#000000">11</text><text aria-label="site: undefined; Description: 12; Start: Dec 01, 2022; Index: 1" role="graphics-symbol" aria-roledescription="text mark" text-anchor="middle" transform="translate(771.7836257309941,33)" font-family="sans-serif" font-size="11px" fill="#000000">12</text></g><g class="mark-rule role-mark concat_0_layer_3_marks" role="graphics-object" aria-roledescription="rule mark container"><line aria-label="Color: #43C59E; Date: Feb 21, 2022" role="graphics-symbol" aria-roledescription="rule mark" transform="translate(250.8771929824561,0)" x2="0" y2="40" stroke="#43C59E" stroke-width="2" stroke-dasharray="5,3"/></g></g><path class="foreground" aria-hidden="true" d="" display="none"/></g></g><g class="mark-group role-scope concat_1_group" role="graphics-object" aria-roledescription="group mark container"><g transform="translate(0,46)"><path class="background" aria-hidden="true" d="M0.5,0.5h800v105h-800Z" stroke="#ddd"/><g><g class="mark-group role-axis" aria-hidden="true"><g transform="translate(0.5,0.5)"><path class="background" aria-hidden="true" d="M0,0h0v0h0Z" pointer-events="none"/><g><g class="mark-rule role-axis-grid" pointer-events="none"><line transform="translate(54,0)" x2="0" y2="105" stroke="#ddd" stroke-width="1" opacity="1"/><line transform="translate(106,0)" x2="0" y2="105" stroke="#ddd" stroke-width="1" opacity="1"/><line transform="translate(161,0)" x2="0" y2="105" stroke="#ddd" stroke-width="1" opacity="1"/><line transform="translate(215,0)" x2="0" y2="105" stroke="#ddd" stroke-width="1" opacity="1"/><line transform="translate(264,0)" x2="0" y2="105" stroke="#ddd" stroke-width="1" opacity="1"/><line transform="translate(319,0)" x2="0" y2="105" stroke="#ddd" stroke-width="1" opacity="1"/><line transform="translate(371,0)" x2="0" y2="105" stroke="#ddd" stroke-width="1" opacity="1"/><line transform="translate(426,0)" x2="0" y2="105" stroke="#ddd" stroke-width="1" opacity="1"/><line transform="translate(478,0)" x2="0" y2="105" stroke="#ddd" stroke-width="1" opacity="1"/><line transform="translate(533,0)" x2="0" y2="105" stroke="#ddd" stroke-width="1" opacity="1"/><line transform="translate(587,0)" x2="0" y2="105" stroke="#ddd" stroke-width="1" opacity="1"/><line transform="translate(640,0)" x2="0" y2="105" stroke="#ddd" stroke-width="1" opacity="1"/><line transform="translate(694,0)" x2="0" y2="105" stroke="#ddd" stroke-width="1" opacity="1"/><line transform="translate(747,0)" x2="0" y2="105" stroke="#ddd" stroke-width="1" opacity="1"/></g></g><path class="foreground" aria-hidden="true" d="" pointer-events="none" display="none"/></g></g><g class="mark-group role-axis" role="graphics-symbol" aria-roledescription="axis" aria-label="X-axis for a time scale with values from 10 to 12"><g transform="translate(0.5,0.5)"><path class="background" aria-hidden="true" d="M0,0h0v0h0Z" pointer-events="none"/><g><g class="mark-rule role-axis-domain" pointer-events="none"><line transform="translate(0,0)" x2="800" y2="0" stroke="#888" stroke-width="1" opacity="1"/></g></g><path class="foreground" aria-hidden="true" d="" pointer-events="none" display="none"/></g></g><g class="mark-group role-axis" role="graphics-symbol" aria-roledescription="axis" aria-label="Y-axis for a discrete scale with 3 values: 1, 2, 3"><g transform="translate(0.5,0.5)"><path class="background" aria-hidden="true" d="M0,0h0v0h0Z" pointer-events="none"/><g><g class="mark-rule role-axis-domain" pointer-events="none"><line transform="translate(0,0)" x2="0" y2="105" stroke="#888" stroke-width="1" opacity="1"/></g></g><path class="foreground" aria-hidden="true" d="" pointer-events="none" display="none"/></g></g><g class="mark-rect role-mark concat_1_layer_0_marks" role="graphics-object" aria-roledescription="rect mark container"><path aria-label="Phase: Develop; Start: 10; End: Jun 01, 2022; Index: 1" role="graphics-symbol" aria-roledescription="bar" d="M4.415204678362573,12.5L420.73099415204683,12.5C423.4905692745168,12.5,425.73099415204683,14.74042487753,425.73099415204683,17.5L425.73099415204683,17.5C425.73099415204683,20.25957512247,423.4905692745168,22.5,420.73099415204683,22.5L4.415204678362573,22.5C1.6556295558925733,22.5,-0.5847953216374269,20.25957512247,-0.5847953216374269,17.5L-0.5847953216374269,17.5C-0.5847953216374269,14.74042487753,1.6556295558925733,12.5,4.415204678362573,12.5Z" fill="#513B56" opacity="0.8"/><path aria-label="Phase: Testing; Start: 06; End: Oct 21, 2022; Index: 1" role="graphics-symbol" aria-roledescription="bar" d="M430.73099415204683,12.5L669.8538011695906,12.5C672.6133762920606,12.5,674.8538011695906,14.74042487753,674.8538011695906,17.5L674.8538011695906,17.5C674.8538011695906,20.25957512247,672.6133762920606,22.5,669.8538011695906,22.5L430.73099415204683,22.5C427.97141902957685,22.5,425.73099415204683,20.25957512247,425.73099415204683,17.5L425.73099415204683,17.5C425.73099415204683,14.74042487753,427.97141902957685,12.5,430.73099415204683,12.5Z" fill="#348AA7" opacity="0.8"/><path aria-label="Phase: Release; Start: 10; End: Dec 31, 2022; Index: 1" role="graphics-symbol" aria-roledescription="bar" d="M679.8538011695906,12.5L794.4152046783626,12.5C797.1747798008325,12.5,799.4152046783626,14.74042487753,799.4152046783626,17.5L799.4152046783626,17.5C799.4152046783626,20.25957512247,797.1747798008325,22.5,794.4152046783626,22.5L679.8538011695906,22.5C677.0942260471206,22.5,674.8538011695906,20.25957512247,674.8538011695906,17.5L674.8538011695906,17.5C674.8538011695906,14.74042487753,677.0942260471206,12.5,679.8538011695906,12.5Z" fill="#BCE784" opacity="0.8"/><path aria-label="Phase: Develop; Start: 10; End: Dec 31, 2022; Index: 2" role="graphics-symbol" aria-roledescription="bar" d="M4.415204678362573,47.5L794.4152046783626,47.5C797.1747798008325,47.5,799.4152046783626,49.74042487753,799.4152046783626,52.5L799.4152046783626,52.5C799.4152046783626,55.25957512247,797.1747798008325,57.5,794.4152046783626,57.5L4.415204678362573,57.5C1.6556295558925733,57.5,-0.5847953216374269,55.25957512247,-0.5847953216374269,52.5L-0.5847953216374269,52.5C-0.5847953216374269,49.74042487753,1.6556295558925733,47.5,4.415204678362573,47.5Z" fill="#513B56" opacity="0.8"/><path aria-label="Phase: Develop; Start: 05; End: Nov 30, 2022; Index: 3" role="graphics-symbol" aria-roledescription="bar" d="M381.60818713450294,82.5L740.0292397660819,82.5C742.7888148885519,82.5,745.0292397660819,84.74042487753,745.0292397660819,87.5L745.0292397660819,87.5C745.0292397660819,90.25957512247,742.7888148885519,92.5,740.0292397660819,92.5L381.60818713450294,92.5C378.84861201203296,92.5,376.60818713450294,90.25957512247,376.60818713450294,87.5L376.60818713450294,87.5C376.60818713450294,84.74042487753,378.84861201203296,82.5,381.60818713450294,82.5Z" fill="#513B56" opacity="0.8"/></g><g class="mark-text role-mark concat_1_layer_1_marks" role="graphics-object" aria-roledescription="text mark container"><text aria-label="FGColor: #000000; Program: Program 1; Index: 1" role="graphics-symbol" aria-roledescription="text mark" text-anchor="end" transform="translate(-5,20.5)" font-family="sans-serif" font-size="11px" fill="#000000">Program 1</text><text aria-label="FGColor: #000000; Program: Program 2; Index: 2" role="graphics-symbol" aria-roledescription="text mark" text-anchor="end" transform="translate(-5,55.5)" font-family="sans-serif" font-size="11px" fill="#000000">Program 2</text><text aria-label="FGColor: #000000; Program: Program 3; Index: 3" role="graphics-symbol" aria-roledescription="text mark" text-anchor="end" transform="translate(-5,90.5)" font-family="sans-serif" font-size="11px" fill="#000000">Program 3</text></g><g class="mark-text role-mark concat_1_layer_2_marks" role="graphics-object" aria-roledescription="text mark container"><text aria-label="FGColor: #FFFFFF; Description: ; Start: Oct 01, 2021; Index: 1" role="graphics-symbol" aria-roledescription="text mark" text-anchor="start" transform="translate(4.415204678362573,20.5)" font-family="sans-serif" font-size="11px" fill="#FFFFFF"/><text aria-label="FGColor: #000000; Description: ; Start: Jun 01, 2022; Index: 1" role="graphics-symbol" aria-roledescription="text mark" text-anchor="start" transform="translate(430.73099415204683,20.5)" font-family="sans-serif" font-size="11px" fill="#000000"/><text aria-label="FGColor: #000000; Description: ; Start: Oct 21, 2022; Index: 1" role="graphics-symbol" aria-roledescription="text mark" text-anchor="start" transform="translate(679.8538011695906,20.5)" font-family="sans-serif" font-size="11px" fill="#000000"/><text aria-label="FGColor: #FFFFFF; Description: ; Start: Oct 01, 2021; Index: 2" role="graphics-symbol" aria-roledescription="text mark" text-anchor="start" transform="translate(4.415204678362573,55.5)" font-family="sans-serif" font-size="11px" fill="#FFFFFF"/><text aria-label="FGColor: #FFFFFF; Description: Develop; Start: May 04, 2022; Index: 3" role="graphics-symbol" aria-roledescription="text mark" text-anchor="start" transform="translate(381.60818713450294,90.5)" font-family="sans-serif" font-size="11px" fill="#FFFFFF">Develop</text></g><g class="mark-symbol role-mark concat_1_layer_3_marks" role="graphics-object" aria-roledescription="symbol mark container"><path aria-label="Milestone: Alpla; Date: Mar 01, 2022; Index: 1" role="graphics-symbol" aria-roledescription="point" transform="translate(264.32748538011697,27.5)" d="M0,-4.330127018922193L-5,4.330127018922193L5,4.330127018922193Z" fill="#FFC75F" stroke-width="2" opacity="0.7"/><path aria-label="Milestone: Beta; Date: Apr 01, 2022; Index: 1" role="graphics-symbol" aria-roledescription="point" transform="translate(318.7134502923977,27.5)" d="M0,-4.330127018922193L-5,4.330127018922193L5,4.330127018922193Z" fill="#FF9671" stroke-width="2" opacity="0.7"/><path aria-label="Milestone: RC; Date: Jun 01, 2022; Index: 1" role="graphics-symbol" aria-roledescription="point" transform="translate(425.73099415204683,27.5)" d="M0,-4.330127018922193L-5,4.330127018922193L5,4.330127018922193Z" fill="#FF6F91" stroke-width="2" opacity="0.7"/><path aria-label="Milestone: Release; Date: Oct 21, 2022; Index: 1" role="graphics-symbol" aria-roledescription="point" transform="translate(674.8538011695906,27.5)" d="M0,-4.330127018922193L-5,4.330127018922193L5,4.330127018922193Z" fill="#D65DB1" stroke-width="2" opacity="0.7"/></g><g class="mark-text role-mark concat_1_layer_4_marks" role="graphics-object" aria-roledescription="text mark container"><text aria-label="FGColor: #000000; Description: Alpla; Date: Mar 01, 2022; Index: 1" role="graphics-symbol" aria-roledescription="text mark" text-anchor="start" transform="translate(269.32748538011697,35.5)" font-family="sans-serif" font-size="11px" fill="#000000">Alpla</text><text aria-label="FGColor: #000000; Description: Beta; Date: Apr 01, 2022; Index: 1" role="graphics-symbol" aria-roledescription="text mark" text-anchor="start" transform="translate(323.7134502923977,35.5)" font-family="sans-serif" font-size="11px" fill="#000000">Beta</text><text aria-label="FGColor: #000000; Description: RC; Date: Jun 01, 2022; Index: 1" role="graphics-symbol" aria-roledescription="text mark" text-anchor="start" transform="translate(430.73099415204683,35.5)" font-family="sans-serif" font-size="11px" fill="#000000">RC</text><text aria-label="FGColor: #000000; Description: Release (TBD); Date: Oct 21, 2022; Index: 1" role="graphics-symbol" aria-roledescription="text mark" text-anchor="start" transform="translate(679.8538011695906,35.5)" font-family="sans-serif" font-size="11px" fill="#000000">Release (TBD)</text></g><g class="mark-text role-mark concat_1_layer_5_marks" role="graphics-object" aria-roledescription="text mark container"><text aria-label="FGColor: #000000; Date_Short: 03/01; Date: Mar 01, 2022; Index: 1" role="graphics-symbol" aria-roledescription="text mark" text-anchor="start" transform="translate(269.32748538011697,44.5)" font-family="sans-serif" font-size="11px" fill="#000000">03/01</text><text aria-label="FGColor: #000000; Date_Short: 04/01; Date: Apr 01, 2022; Index: 1" role="graphics-symbol" aria-roledescription="text mark" text-anchor="start" transform="translate(323.7134502923977,44.5)" font-family="sans-serif" font-size="11px" fill="#000000">04/01</text><text aria-label="FGColor: #000000; Date_Short: 06/01; Date: Jun 01, 2022; Index: 1" role="graphics-symbol" aria-roledescription="text mark" text-anchor="start" transform="translate(430.73099415204683,44.5)" font-family="sans-serif" font-size="11px" fill="#000000">06/01</text><text aria-label="FGColor: #000000; Date_Short: 10/21 (TBC); Date: Oct 21, 2022; Index: 1" role="graphics-symbol" aria-roledescription="text mark" text-anchor="start" transform="translate(679.8538011695906,44.5)" font-family="sans-serif" font-size="11px" fill="#000000">10/21 (TBC)</text></g><g class="mark-rule role-mark concat_1_layer_6_marks" role="graphics-object" aria-roledescription="rule mark container"><line aria-label="Color: #43C59E; Date: Feb 21, 2022" role="graphics-symbol" aria-roledescription="rule mark" transform="translate(250.8771929824561,0)" x2="0" y2="105" stroke="#43C59E" stroke-width="2" stroke-dasharray="5,3"/></g><g class="mark-group role-legend" role="graphics-symbol" aria-roledescription="legend" aria-label="Symbol legend titled 'Phase' for fill color with 3 values: Develop, Testing, Release"><g transform="translate(818,0)"><path class="background" aria-hidden="true" d="M0,0h53v53h-53Z" pointer-events="none"/><g><g class="mark-group role-legend-entry"><g transform="translate(0,16)"><path class="background" aria-hidden="true" d="M0,0h0v0h0Z" pointer-events="none"/><g><g class="mark-group role-scope" role="graphics-object" aria-roledescription="group mark container"><g transform="translate(0,0)"><path class="background" aria-hidden="true" d="M0,0h52.689453125v11h-52.689453125Z" pointer-events="none" opacity="1"/><g><g class="mark-symbol role-legend-symbol" pointer-events="none"><path transform="translate(6,6)" d="M-5,-5h10v10h-10Z" fill="#513B56" stroke-width="1.5" opacity="0.8"/></g><g class="mark-text role-legend-label" pointer-events="none"><text text-anchor="start" transform="translate(16,9)" font-family="sans-serif" font-size="10px" fill="#000" opacity="1">Develop</text></g></g><path class="foreground" aria-hidden="true" d="" pointer-events="none" display="none"/></g><g transform="translate(0,13)"><path class="background" aria-hidden="true" d="M0,0h52.689453125v11h-52.689453125Z" pointer-events="none" opacity="1"/><g><g class="mark-symbol role-legend-symbol" pointer-events="none"><path transform="translate(6,6)" d="M-5,-5h10v10h-10Z" fill="#348AA7" stroke-width="1.5" opacity="0.8"/></g><g class="mark-text role-legend-label" pointer-events="none"><text text-anchor="start" transform="translate(16,9)" font-family="sans-serif" font-size="10px" fill="#000" opacity="1">Testing</text></g></g><path class="foreground" aria-hidden="true" d="" pointer-events="none" display="none"/></g><g transform="translate(0,26)"><path class="background" aria-hidden="true" d="M0,0h52.689453125v11h-52.689453125Z" pointer-events="none" opacity="1"/><g><g class="mark-symbol role-legend-symbol" pointer-events="none"><path transform="translate(6,6)" d="M-5,-5h10v10h-10Z" fill="#BCE784" stroke-width="1.5" opacity="0.8"/></g><g class="mark-text role-legend-label" pointer-events="none"><text text-anchor="start" transform="translate(16,9)" font-family="sans-serif" font-size="10px" fill="#000" opacity="1">Release</text></g></g><path class="foreground" aria-hidden="true" d="" pointer-events="none" display="none"/></g></g></g><path class="foreground" aria-hidden="true" d="" pointer-events="none" display="none"/></g></g><g class="mark-text role-legend-title" pointer-events="none"><text text-anchor="start" transform="translate(0,9)" font-family="sans-serif" font-size="11px" font-weight="bold" fill="#000" opacity="1">Phase</text></g></g><path class="foreground" aria-hidden="true" d="" pointer-events="none" display="none"/></g></g><g class="mark-group role-legend" role="graphics-symbol" aria-roledescription="legend" aria-label="Symbol legend titled 'Milestone' for shape and fill color with 4 values: Alpla, Beta, RC, Release"><g transform="translate(818,61)"><path class="background" aria-hidden="true" d="M0,0h53v66h-53Z" pointer-events="none"/><g><g class="mark-group role-legend-entry"><g transform="translate(0,16)"><path class="background" aria-hidden="true" d="M0,0h0v0h0Z" pointer-events="none"/><g><g class="mark-group role-scope" role="graphics-object" aria-roledescription="group mark container"><g transform="translate(0,0)"><path class="background" aria-hidden="true" d="M0,0h52.689453125v11h-52.689453125Z" pointer-events="none" opacity="1"/><g><g class="mark-symbol role-legend-symbol" pointer-events="none"><path transform="translate(6,6)" d="M0,-4.330127018922193L-5,4.330127018922193L5,4.330127018922193Z" fill="#FFC75F" stroke-width="1.5" opacity="0.7"/></g><g class="mark-text role-legend-label" pointer-events="none"><text text-anchor="start" transform="translate(16,9)" font-family="sans-serif" font-size="10px" fill="#000" opacity="1">Alpla</text></g></g><path class="foreground" aria-hidden="true" d="" pointer-events="none" display="none"/></g><g transform="translate(0,13)"><path class="background" aria-hidden="true" d="M0,0h52.689453125v11h-52.689453125Z" pointer-events="none" opacity="1"/><g><g class="mark-symbol role-legend-symbol" pointer-events="none"><path transform="translate(6,6)" d="M0,-4.330127018922193L-5,4.330127018922193L5,4.330127018922193Z" fill="#FF9671" stroke-width="1.5" opacity="0.7"/></g><g class="mark-text role-legend-label" pointer-events="none"><text text-anchor="start" transform="translate(16,9)" font-family="sans-serif" font-size="10px" fill="#000" opacity="1">Beta</text></g></g><path class="foreground" aria-hidden="true" d="" pointer-events="none" display="none"/></g><g transform="translate(0,26)"><path class="background" aria-hidden="true" d="M0,0h52.689453125v11h-52.689453125Z" pointer-events="none" opacity="1"/><g><g class="mark-symbol role-legend-symbol" pointer-events="none"><path transform="translate(6,6)" d="M0,-4.330127018922193L-5,4.330127018922193L5,4.330127018922193Z" fill="#FF6F91" stroke-width="1.5" opacity="0.7"/></g><g class="mark-text role-legend-label" pointer-events="none"><text text-anchor="start" transform="translate(16,9)" font-family="sans-serif" font-size="10px" fill="#000" opacity="1">RC</text></g></g><path class="foreground" aria-hidden="true" d="" pointer-events="none" display="none"/></g><g transform="translate(0,39)"><path class="background" aria-hidden="true" d="M0,0h52.689453125v11h-52.689453125Z" pointer-events="none" opacity="1"/><g><g class="mark-symbol role-legend-symbol" pointer-events="none"><path transform="translate(6,6)" d="M0,-4.330127018922193L-5,4.330127018922193L5,4.330127018922193Z" fill="#D65DB1" stroke-width="1.5" opacity="0.7"/></g><g class="mark-text role-legend-label" pointer-events="none"><text text-anchor="start" transform="translate(16,9)" font-family="sans-serif" font-size="10px" fill="#000" opacity="1">Release</text></g></g><path class="foreground" aria-hidden="true" d="" pointer-events="none" display="none"/></g></g></g><path class="foreground" aria-hidden="true" d="" pointer-events="none" display="none"/></g></g><g class="mark-text role-legend-title" pointer-events="none"><text text-anchor="start" transform="translate(0,9)" font-family="sans-serif" font-size="11px" font-weight="bold" fill="#000" opacity="1">Milestone</text></g></g><path class="foreground" aria-hidden="true" d="" pointer-events="none" display="none"/></g></g></g><path class="foreground" aria-hidden="true" d="" display="none"/></g></g></g><path class="foreground" aria-hidden="true" d="" display="none"/></g></g></g></svg>